<svg xmlns="http://www.w3.org/2000/svg" x="0px" y="0px"
width="64" height="64"
viewBox="0 0 172 172"
style=" fill:#000000;"><g transform="translate(4.988,4.988) scale(0.942,0.942)"><g fill="none" fill-rule="nonzero" stroke="none" stroke-width="none" stroke-linecap="butt" stroke-linejoin="none" stroke-miterlimit="10" stroke-dasharray="" stroke-dashoffset="0" font-family="none" font-weight="none" font-size="none" text-anchor="none" style="mix-blend-mode: normal"><g fill="#666666" stroke="#000000" stroke-width="10" stroke-linejoin="round"><path d="M160.53333,34.4v103.2c0,6.33533 -5.13133,11.46667 -11.46667,11.46667h-126.13333c-6.33533,0 -11.46667,-5.13133 -11.46667,-11.46667v-103.2c0,-6.33533 5.13133,-11.46667 11.46667,-11.46667h126.13333c6.33533,0 11.46667,5.13133 11.46667,11.46667zM149.06667,34.4h-17.2v17.2h17.2zM149.06667,63.06667h-17.2v17.2h17.2zM126.13333,88.86667c0,-1.5824 -1.28427,-2.86667 -2.86667,-2.86667h-74.53333c-1.5824,0 -2.86667,1.28427 -2.86667,2.86667c0,1.5824 1.28427,2.86667 2.86667,2.86667h74.53333c1.5824,0 2.86667,-1.28427 2.86667,-2.86667zM149.06667,91.73333h-17.2v17.2h17.2zM149.06667,120.4h-17.2v17.2h17.2zM40.13333,34.4h-17.2v17.2h17.2zM40.13333,63.06667h-17.2v17.2h17.2zM40.13333,91.73333h-17.2v17.2h17.2zM40.13333,120.4h-17.2v17.2h17.2z"></path></g><path d="M0,172v-172h172v172z" fill="none" stroke="none" stroke-width="1" stroke-linejoin="miter"></path><g fill="#666666" stroke="none" stroke-width="1" stroke-linejoin="miter"><path d="M149.06667,22.93333h-126.13333c-6.33533,0 -11.46667,5.13133 -11.46667,11.46667v103.2c0,6.33533 5.13133,11.46667 11.46667,11.46667h126.13333c6.33533,0 11.46667,-5.13133 11.46667,-11.46667v-103.2c0,-6.33533 -5.13133,-11.46667 -11.46667,-11.46667zM149.06667,51.6h-17.2v-17.2h17.2zM149.06667,80.26667h-17.2v-17.2h17.2zM123.26667,91.73333h-74.53333c-1.5824,0 -2.86667,-1.28427 -2.86667,-2.86667v0c0,-1.5824 1.28427,-2.86667 2.86667,-2.86667h74.53333c1.5824,0 2.86667,1.28427 2.86667,2.86667v0c0,1.5824 -1.28427,2.86667 -2.86667,2.86667zM149.06667,108.93333h-17.2v-17.2h17.2zM149.06667,137.6h-17.2v-17.2h17.2zM40.13333,51.6h-17.2v-17.2h17.2zM40.13333,80.26667h-17.2v-17.2h17.2zM40.13333,108.93333h-17.2v-17.2h17.2zM40.13333,137.6h-17.2v-17.2h17.2z"></path></g><path d="M86,172c-47.49649,0 -86,-38.50351 -86,-86v0c0,-47.49649 38.50351,-86 86,-86v0c47.49649,0 86,38.50351 86,86v0c0,47.49649 -38.50351,86 -86,86z" fill="none" stroke="none" stroke-width="1" stroke-linejoin="miter"></path><path d="M86,168.56c-45.59663,0 -82.56,-36.96337 -82.56,-82.56v0c0,-45.59663 36.96337,-82.56 82.56,-82.56v0c45.59663,0 82.56,36.96337 82.56,82.56v0c0,45.59663 -36.96337,82.56 -82.56,82.56z" fill="none" stroke="none" stroke-width="1" stroke-linejoin="miter"></path><path d="M0,172v-172h172v172z" fill="none" stroke="none" stroke-width="1" stroke-linejoin="miter"></path><path d="M3.44,168.56v-165.12h165.12v165.12z" fill="none" stroke="none" stroke-width="1" stroke-linejoin="miter"></path><path d="" fill="none" stroke="none" stroke-width="1" stroke-linejoin="miter"></path></g></g></svg>